<svg t="1745840314658" class="icon" viewBox="0 0 1024 1024" version="1.1" xmlns="http://www.w3.org/2000/svg" p-id="4814" width="32" height="32"><path d="M512 930.909091a34.909091 34.909091 0 0 1-34.909091-34.909091v-166.4a34.909091 34.909091 0 0 1 69.818182 0v166.4A34.909091 34.909091 0 0 1 512 930.909091zM663.970909 901.12a36.072727 36.072727 0 0 1-14.429091-3.258182 34.676364 34.676364 0 0 1-17.221818-46.545454 229.003636 229.003636 0 0 1 190.836364-135.214546 34.909091 34.909091 0 1 1 5.12 69.818182 159.185455 159.185455 0 0 0-132.421819 93.090909 34.909091 34.909091 0 0 1-31.883636 22.109091zM361.658182 901.12a34.676364 34.676364 0 0 1-31.650909-20.712727 159.185455 159.185455 0 0 0-132.654546-93.090909 34.909091 34.909091 0 0 1 5.12-69.818182 229.236364 229.236364 0 0 1 191.069091 135.214545 34.676364 34.676364 0 0 1-17.454545 46.545455 35.141818 35.141818 0 0 1-14.429091 1.861818z" p-id="4815"></path><path d="M512 725.643636A354.443636 354.443636 0 0 1 162.909091 368.64v-23.272727a357.469091 357.469091 0 0 1 72.378182-195.490909 53.061818 53.061818 0 0 1 46.545454-20.945455 349.090909 349.090909 0 0 1 127.534546 35.607273A346.763636 346.763636 0 0 1 488.727273 100.538182a51.898182 51.898182 0 0 1 53.76 0 351.418182 351.418182 0 0 1 80.290909 64.698182 351.418182 351.418182 0 0 1 118.225454-34.676364 53.061818 53.061818 0 0 1 47.709091 20.712727A360.261818 360.261818 0 0 1 861.090909 368.872727a353.745455 353.745455 0 0 1-344.203636 356.538182zM286.254545 199.912727a289.512727 289.512727 0 0 0-53.527272 151.272728v17.454545a284.392727 284.392727 0 0 0 279.272727 287.185455h4.189091A283.694545 283.694545 0 0 0 791.272727 368.872727a290.909091 290.909091 0 0 0-52.596363-167.796363 279.272727 279.272727 0 0 0-105.658182 38.4l-26.763637 16.523636-19.316363-24.901818a282.065455 282.065455 0 0 0-69.818182-65.163637 282.298182 282.298182 0 0 0-69.818182 64.93091L426.589091 256l-26.763636-16.523636a280.436364 280.436364 0 0 0-113.57091-39.563637z m446.836364-6.516363z" p-id="4816"></path></svg>